<svg aria-hidden="true" style="position: absolute; width: 0; height: 0; overflow: hidden;" version="1.1" xmlns="http://www.w3.org/2000/svg" xmlns:xlink="http://www.w3.org/1999/xlink">
<defs>
<symbol id="icon-1" viewBox="0 0 32 32">
<title>1</title>
<path fill="#1faae2" style="fill: var(--color1, #1faae2)" d="M18.577 0h0.453c0.78 0.14 1.5 0.699 1.659 1.5 0.273 1.028-0.47 2.164-1.513 2.34-1.068 0.248-2.206-0.6-2.293-1.687-0.148-1.043 0.68-2.003 1.693-2.153z"></path>
<path fill="#1faae2" style="fill: var(--color1, #1faae2)" d="M15.919 8.733c1.928-0.004 3.859 0 5.79-0.002 0 0.968 0 1.939 0 2.91-0.483 0-0.964 0.002-1.447 0 0.072 1.161-0.142 2.361 0.1 3.497 2.687 3.74 5.455 7.43 8.17 11.153 0.583 0.826 1.282 1.594 1.676 2.539 0.282 0.691 0.326 1.56-0.165 2.17-0.627 0.79-1.702 0.962-2.651 1h-11.45c-0.019-0.651-0.032-1.301-0.036-1.95 3.208 0 6.417-0.002 9.625 0.002 0.627-0.017 1.466-0.034 1.778-0.689 0.231-0.704-0.186-1.405-0.545-1.986-1.002-1.464-2.070-2.884-3.071-4.349-0.259-0.375-0.545-0.761-0.968-0.958-1.11-0.526-2.329-0.909-3.571-0.812-1.189 0.070-2.272 0.623-3.278 1.219 0.036-1.193 0.042-2.386-0.021-3.579 1.443 0.254 2.973-0.863 2.952-2.371 0.076-1.507-1.426-2.7-2.878-2.452-0.042-1.78-0.030-3.562-0.008-5.343z"></path>
<path fill="#57bfe9" style="fill: var(--color2, #57bfe9)" d="M14.599 5.396c0.619-0.261 1.369 0.297 1.301 0.964-0.006 0.725-0.939 1.185-1.515 0.742-0.646-0.396-0.504-1.481 0.214-1.706z"></path>
<path fill="#57bfe9" style="fill: var(--color2, #57bfe9)" d="M10.092 8.733c1.943 0 3.884 0.002 5.828 0-0.021 1.78-0.034 3.562 0.008 5.343-1.108 0.282-2.026 1.28-1.962 2.467-0.011 1.125 0.869 2.022 1.888 2.357 0.064 1.193 0.057 2.386 0.021 3.579-1.257 0.75-2.579 1.564-4.086 1.617-1.267 0.097-2.49-0.324-3.643-0.805-0.896 1.155-1.787 2.314-2.679 3.473-0.49 0.674-1.034 1.407-1.047 2.276 0.034 0.805 0.96 1.009 1.611 1.005 3.291 0.017 6.582 0 9.873 0.006 0.004 0.648 0.017 1.299 0.036 1.95h-11.832c-1.151-0.064-2.505-0.581-2.732-1.856v-0.424c0.121-1.151 0.877-2.058 1.541-2.95 2.88-3.914 5.756-7.833 8.634-11.749-0.004-1.127-0.002-2.253-0.002-3.38-0.485 0.002-0.973 0-1.458 0 0-0.968 0-1.939 0-2.908zM11.378 19.55c-1.007 0.449-1.064 2.026-0.091 2.547 0.863 0.564 2.121-0.089 2.189-1.104 0.155-1.085-1.136-1.984-2.098-1.443z"></path>
<path fill="#fff" style="fill: var(--color3, #fff)" d="M13.966 16.543c-0.064-1.187 0.854-2.185 1.962-2.467 1.452-0.248 2.954 0.945 2.878 2.452 0.021 1.509-1.509 2.626-2.952 2.371-1.019-0.335-1.899-1.231-1.888-2.357z"></path>
<path fill="#fff" style="fill: var(--color3, #fff)" d="M11.378 19.55c0.962-0.54 2.253 0.358 2.098 1.443-0.068 1.015-1.327 1.668-2.189 1.104-0.973-0.521-0.915-2.098 0.091-2.547z"></path>
<path fill="#fff" style="fill: var(--color3, #fff)" d="M15.875 22.478c1.007-0.596 2.090-1.149 3.278-1.219 1.242-0.097 2.46 0.286 3.571 0.812 0.424 0.197 0.71 0.583 0.968 0.958 1 1.464 2.068 2.884 3.071 4.349 0.358 0.581 0.776 1.282 0.545 1.986-0.312 0.655-1.151 0.672-1.778 0.689-3.208-0.004-6.417-0.002-9.625-0.002-3.291-0.006-6.582 0.011-9.873-0.006-0.651 0.004-1.577-0.199-1.611-1.005 0.013-0.869 0.557-1.602 1.047-2.276 0.892-1.159 1.782-2.318 2.679-3.473 1.153 0.481 2.376 0.903 3.643 0.805 1.507-0.053 2.829-0.867 4.086-1.617z"></path>
</symbol>
<symbol id="icon-2" viewBox="0 0 32 32">
<title>2</title>
<path fill="#7a7a7a" style="fill: var(--color4, #7a7a7a)" d="M13.323 0h8.492c1.366 0.258 2.588 1.27 2.873 2.663 0.237 1.369 0.089 2.77 0.103 4.153h-0.096c-0.602-0.017-1.201-0.048-1.8-0.072-0.028-1.294 0.155-2.615-0.11-3.892-0.423-1.060-1.727-0.922-2.656-0.939-2.295 0.062-4.594-0.076-6.889 0.072-0.884 0.041-1.359 0.977-1.287 1.779-0.017 6.548 0.010 13.096-0.003 19.644 0.062 1.363-0.647 2.742-1.889 3.355-1.975 1.077-4.848-0.196-5.185-2.467-0.265-2.343 0.175-4.728-0.21-7.057-0.822-1.569-3.042-0.103-4.15-1.301v-0.853c0.819-0.795 2.034-0.547 3.059-0.523 1.469 0.028 2.835 1.17 3.045 2.639 0.275 2.285-0.089 4.604 0.169 6.892 0.389 1.659 3.303 1.442 3.234-0.368 0.086-6.765-0.024-13.533 0.045-20.298-0.041-1.803 1.507-3.289 3.255-3.427z"></path>
<path fill="#efefef" style="fill: var(--color5, #efefef)" d="M19.121 7.185c1.514-0.647 3.203-0.313 4.8-0.344-0.117 1.125 0.241 2.498-0.664 3.375-1.221 1.074-0.802 2.835-0.798 4.267-0.1 0.922 0.791 1.321 1.431 1.738-0.058 5.258-0.076 10.522 0.010 15.78h-3.169c-2.453-0.12-4.538-2.336-4.473-4.797-0.017-5.172-0.007-10.343-0.007-15.511-0.055-1.903 1.115-3.761 2.87-4.508z"></path>
<path fill="#d4d4d4" style="fill: var(--color6, #d4d4d4)" d="M23.921 6.84c0.193-0.007 0.578-0.017 0.774-0.024h0.096c1.466-0.034 3.073-0.182 4.366 0.657 1.335 0.778 2.147 2.237 2.326 3.751v16.32c-0.175 2.285-2.058 4.243-4.349 4.456h-3.234c-0.086-5.258-0.069-10.522-0.010-15.78 0.485-0.413 1.297-0.678 1.335-1.418 0.134-1.228 0.175-2.491-0.058-3.709-0.213-0.864-1.211-0.826-1.91-0.877 0.905-0.877 0.547-2.25 0.664-3.375z"></path>
<path fill="#626262" style="fill: var(--color7, #626262)" d="M22.459 14.483c-0.003-1.431-0.423-3.193 0.798-4.267 0.698 0.052 1.696 0.014 1.91 0.877 0.234 1.218 0.193 2.481 0.058 3.709-0.038 0.74-0.85 1.005-1.335 1.418-0.64-0.416-1.531-0.815-1.431-1.738z"></path>
</symbol>
<symbol id="icon-3" viewBox="0 0 32 32">
<title>3</title>
<path fill="#edcdc7" style="fill: var(--color8, #edcdc7)" d="M14.097 3.266c1.361-0.367 2.851-0.543 4.214-0.087 1.714 0.522 3.452 1.6 4.053 3.378 0.586 1.691-0.068 3.441-0.233 5.139 0.056 1.152 0.386 2.366-0.178 3.454-0.543 1.1-1.392 2.013-2.323 2.799-0.758 0.588-1.594 1.129-2.541 1.348-0.322-0.033-0.644-0.078-0.964-0.122 0.060-0.241 0.12-0.479 0.18-0.72 0.211 0.192 0.423 0.384 0.634 0.576 1.631-0.638 3.316-1.617 4.018-3.311 0.533-1.105 0.469-2.36 0.299-3.543 0.021-0.285 0.047-0.57 0.074-0.855 0.25-1.162 0.566-2.382 0.211-3.557-0.438-1.441-1.088-2.977-2.422-3.803-1.515-0.857-3.402-0.913-5.035-0.378-1.462 0.467-2.756 1.672-3.066 3.212-0.287 1.197-0.093 2.436 0.248 3.599 0.033 0.539 0.054 1.080 0.052 1.619-0.198 1.431-0.142 3.029 0.77 4.222 1.034 1.226 2.397 2.1 3.663 3.060-1.216-0.283-2.252-1.030-3.15-1.866-0.615-0.582-1.15-1.245-1.586-1.969-0.256-0.593-0.522-1.222-0.467-1.883 0.060-0.859 0.225-1.716 0.122-2.581-0.103-1.28-0.615-2.545-0.324-3.84 0.316-1.912 1.935-3.378 3.749-3.892z"></path>
<path fill="#f2c0b5" style="fill: var(--color9, #f2c0b5)" d="M14.086 3.584c1.633-0.535 3.52-0.479 5.035 0.378 1.334 0.826 1.984 2.362 2.422 3.803 0.355 1.175 0.039 2.395-0.211 3.557-0.049-0.485 0.12-1.142-0.349-1.47-0.522-0.277-1.144-0.215-1.714-0.252 0.669-0.058 1.336-0.134 2.001-0.229-0.504-0.262-1.055-0.423-1.625-0.415 0.149-1.008 0.151-2.091-0.399-2.987-0.615-1.127-1.862-1.887-3.151-1.848-1.48 0.004-2.845 1.069-3.32 2.451-0.306 0.82-0.2 1.711-0.138 2.564-0.394 0.066-0.754 0.248-0.968 0.603-0.145 0.209-0.277 0.431-0.399 0.655-0.341-1.164-0.535-2.403-0.248-3.599 0.31-1.54 1.604-2.744 3.066-3.212z"></path>
<path fill="#f2c0b5" style="fill: var(--color9, #f2c0b5)" d="M11.32 12.015c0.184 0.297 0.407 0.626 0.793 0.644 1.078 0.107 2.197 0.161 3.248-0.147-0.178 0.859-0.219 1.74-0.314 2.612l0.045-0.006c0.915 0.167 1.846 0.149 2.762 0.010-0.039-0.068-0.114-0.207-0.153-0.277-0.19-0.749-0.244-1.522-0.337-2.287 1.041 0.225 2.124 0.209 3.179 0.093 0.303-0.033 0.504-0.289 0.716-0.479 0.171 1.183 0.235 2.438-0.299 3.543-0.702 1.693-2.387 2.672-4.018 3.311-0.211-0.192-0.423-0.384-0.634-0.576-0.060 0.241-0.12 0.479-0.18 0.72 0.32 0.045 0.642 0.089 0.964 0.122-0.44 0.076-0.9 0.12-1.336 0-1.266-0.96-2.63-1.835-3.663-3.060-0.912-1.193-0.968-2.791-0.77-4.222zM13.512 16.59c0.262 0.087 0.52 0.192 0.789 0.254 1.084 1.472 3.535 0.993 4.375-0.504 0.134-0.12 0.26-0.246 0.382-0.376-1.862-0.066-3.743 0.169-5.547 0.626z"></path>
<path fill="#dc9d94" style="fill: var(--color10, #dc9d94)" d="M12.773 6.573c0.475-1.383 1.841-2.447 3.32-2.451 1.29-0.039 2.537 0.721 3.151 1.848 0.551 0.896 0.549 1.978 0.399 2.987-0.595 0.079-1.113 0.392-1.6 0.723-0.353 0.213-0.706 0.427-1.061 0.632-0.446 0.006-0.892 0.010-1.338 0.019-0.283-0.202-0.566-0.405-0.859-0.591-0.628-0.438-1.4-0.568-2.151-0.603-0.062-0.853-0.169-1.744 0.138-2.564z"></path>
<path fill="#dc9d94" style="fill: var(--color10, #dc9d94)" d="M11.706 10.184c1.164-0.347 2.417-0.221 3.534 0.229 0.002 0.628-0.017 1.264-0.219 1.868-1.036 0.010-2.143 0.225-3.136-0.109-0.374-0.559-0.175-1.34-0.178-1.988zM12.517 11.099c0.258 1.096 1.815 1.146 2.341 0.233-0.209-0.085-0.419-0.169-0.628-0.252-0.33-0.029-0.657-0.058-0.985-0.087-0.182 0.027-0.545 0.079-0.727 0.107z"></path>
<path fill="#dc9d94" style="fill: var(--color10, #dc9d94)" d="M17.377 10.418c1.084-0.413 2.337-0.642 3.45-0.221 0.264 0.357 0.134 0.836 0.128 1.247-0.062 0.277-0.004 0.7-0.351 0.803-0.999 0.177-2.023 0.081-3.029 0.023-0.153-0.605-0.206-1.23-0.198-1.852zM18.151 11.34c0.206 0.184 0.398 0.392 0.636 0.537 0.663 0.32 1.685-0.033 1.701-0.863-0.136 0.015-0.409 0.049-0.545 0.064-0.367-0.035-0.733-0.039-1.1-0.014-0.231 0.093-0.462 0.182-0.692 0.275z"></path>
<path fill="#dc9d94" style="fill: var(--color10, #dc9d94)" d="M15.628 10.672c0.454 0.002 0.908-0.006 1.361-0.017 0.052 0.646 0.066 1.321 0.374 1.908 0.093 0.764 0.147 1.538 0.337 2.287-0.879-0.081-1.763 0.017-2.608 0.268l-0.045 0.006c0.095-0.873 0.136-1.753 0.314-2.612 0.142-0.605 0.221-1.222 0.266-1.839z"></path>
<path fill="#dc9d94" style="fill: var(--color10, #dc9d94)" d="M14.301 16.844c1.474 0.134 2.965-0.064 4.375-0.504-0.84 1.497-3.291 1.976-4.375 0.504z"></path>
<path fill="#570961" style="fill: var(--color11, #570961)" d="M18.044 9.68c0.487-0.332 1.005-0.644 1.6-0.723 0.57-0.008 1.121 0.153 1.625 0.415-0.665 0.095-1.332 0.171-2.001 0.229-0.409 0.019-0.817 0.043-1.224 0.079z"></path>
<path fill="#570961" style="fill: var(--color11, #570961)" d="M11.667 9.74c0.213-0.355 0.574-0.537 0.968-0.603 0.751 0.035 1.522 0.165 2.151 0.603-1.036-0.124-2.085-0.167-3.119 0z"></path>
<path fill="#570961" style="fill: var(--color11, #570961)" d="M12.449 24.842c2.463 0.531 5.081 0.353 7.381-0.712 0.204 2.438 0.219 4.885 0.308 7.329-1.1 0.297-2.232 0.452-3.367 0.541h-1.536c-1.038-0.081-2.073-0.219-3.086-0.465 0.068-2.23-0.043-4.484 0.299-6.693z"></path>
<path fill="#110b13" style="fill: var(--color12, #110b13)" d="M11.667 9.74c1.034-0.167 2.083-0.124 3.119 0 0.293 0.186 0.576 0.39 0.859 0.591 0.446-0.010 0.892-0.014 1.338-0.019 0.355-0.206 0.708-0.419 1.061-0.632 0.407-0.037 0.815-0.060 1.224-0.079 0.57 0.037 1.193-0.025 1.714 0.252 0.469 0.328 0.301 0.985 0.349 1.47-0.027 0.285-0.052 0.57-0.074 0.855-0.211 0.19-0.413 0.446-0.716 0.479-1.055 0.116-2.137 0.132-3.179-0.093-0.308-0.588-0.322-1.263-0.374-1.908-0.454 0.012-0.908 0.019-1.361 0.017-0.045 0.617-0.124 1.233-0.266 1.839-1.051 0.308-2.17 0.254-3.248 0.147-0.386-0.017-0.609-0.347-0.793-0.644 0.002-0.539-0.019-1.080-0.052-1.619 0.122-0.225 0.254-0.446 0.399-0.655zM11.706 10.184c0.004 0.648-0.196 1.429 0.178 1.988 0.993 0.334 2.1 0.118 3.136 0.109 0.202-0.603 0.221-1.239 0.219-1.868-1.117-0.45-2.37-0.576-3.534-0.229zM17.377 10.418c-0.008 0.623 0.045 1.247 0.198 1.852 1.007 0.058 2.031 0.153 3.029-0.023 0.347-0.103 0.289-0.526 0.351-0.803 0.006-0.411 0.136-0.89-0.128-1.247-1.113-0.421-2.366-0.192-3.45 0.221z"></path>
<path fill="#110b13" style="fill: var(--color12, #110b13)" d="M6.33 23.405c2.017-0.824 4.205-1.080 6.355-1.317-0.017 0.921-0.049 1.848-0.237 2.754-0.341 2.209-0.231 4.463-0.299 6.693-2.903-0.716-5.58-2.271-7.657-4.418 0.062-0.805 0.066-1.623 0.279-2.407 0.217-0.694 0.952-1.014 1.557-1.305z"></path>
<path fill="#110b13" style="fill: var(--color12, #110b13)" d="M19.724 21.946c1.922 0.122 3.863 0.283 5.71 0.857 0.712 0.256 1.505 0.535 1.949 1.185 0.376 0.873 0.363 1.846 0.46 2.777-2.060 2.248-4.752 3.912-7.703 4.693-0.089-2.444-0.105-4.891-0.308-7.329-0.064-0.725-0.087-1.455-0.107-2.184z"></path>
<path fill="#cd8e85" style="fill: var(--color13, #cd8e85)" d="M9.061 11.57c0.25-0.661 1.040-0.588 1.612-0.572 0.103 0.865-0.062 1.722-0.122 2.581-0.054 0.661 0.211 1.29 0.467 1.883-0.615-0.171-1.243-0.467-1.544-1.065-0.438-0.849-0.712-1.893-0.413-2.828z"></path>
<path fill="#cd8e85" style="fill: var(--color13, #cd8e85)" d="M22.204 11.206c0.611-0.14 1.441-0.403 1.875 0.221 0.438 0.815 0.289 1.864-0.126 2.661-0.39 0.729-1.235 0.972-2 1.063 0.564-1.088 0.235-2.302 0.178-3.454 0.017-0.122 0.054-0.368 0.072-0.491z"></path>
<path fill="#cd8e85" style="fill: var(--color13, #cd8e85)" d="M13.512 16.59c1.804-0.458 3.685-0.692 5.547-0.626-0.122 0.13-0.248 0.256-0.382 0.376-1.41 0.44-2.901 0.638-4.375 0.504-0.27-0.062-0.527-0.167-0.789-0.254z"></path>
<path fill="#cd8e85" style="fill: var(--color13, #cd8e85)" d="M12.604 17.431c0.898 0.836 1.934 1.583 3.15 1.866 0.436 0.12 0.896 0.076 1.336 0 0.946-0.219 1.782-0.76 2.541-1.348 0.023 0.401 0.050 0.803 0.060 1.206-0.017 0.518-0.066 1.032-0.109 1.548-1.297 0.442-2.678 0.801-4.057 0.572-0.9-0.161-1.757-0.584-2.422-1.21-0.405-0.378-0.421-0.972-0.485-1.486-0.015-0.382-0.014-0.766-0.014-1.148z"></path>
<path fill="#eae4e3" style="fill: var(--color14, #eae4e3)" d="M12.517 11.099c0.182-0.027 0.545-0.079 0.727-0.107-0.019 0.178-0.054 0.535-0.074 0.714 0.248 0.049 0.495 0.213 0.751 0.126 0.194-0.204 0.213-0.5 0.308-0.752 0.209 0.083 0.419 0.167 0.628 0.252-0.526 0.913-2.083 0.863-2.341-0.233z"></path>
<path fill="#147688" style="fill: var(--color15, #147688)" d="M13.244 10.992c0.328 0.029 0.655 0.058 0.985 0.087-0.095 0.252-0.114 0.549-0.308 0.752-0.256 0.087-0.502-0.078-0.751-0.126 0.019-0.178 0.054-0.535 0.074-0.714zM13.421 11.268c0.099 0.122 0.099 0.122 0 0z"></path>
<path fill="#cfd8da" style="fill: var(--color16, #cfd8da)" d="M18.151 11.34c0.231-0.093 0.462-0.182 0.692-0.275 0.064 0.248 0.14 0.493 0.225 0.733 0.316 0.175 0.593-0.083 0.867-0.211-0.138-0.076-0.413-0.227-0.551-0.303 0.14-0.050 0.419-0.155 0.559-0.206 0.136-0.015 0.409-0.049 0.545-0.064-0.015 0.83-1.038 1.183-1.701 0.863-0.239-0.145-0.431-0.353-0.636-0.537z"></path>
<path fill="#0c7284" style="fill: var(--color17, #0c7284)" d="M18.843 11.064c0.367-0.025 0.733-0.021 1.1 0.014-0.14 0.050-0.419 0.155-0.559 0.206 0.138 0.076 0.413 0.227 0.551 0.303-0.273 0.128-0.551 0.386-0.867 0.211-0.085-0.241-0.161-0.485-0.225-0.733z"></path>
<path fill="#b9d6dc" style="fill: var(--color18, #b9d6dc)" d="M13.421 11.268c0.099 0.122 0.099 0.122 0 0z"></path>
<path fill="#ca948b" style="fill: var(--color19, #ca948b)" d="M15.092 15.118c0.846-0.25 1.73-0.349 2.608-0.268 0.039 0.070 0.114 0.209 0.153 0.277-0.915 0.14-1.846 0.157-2.762-0.010z"></path>
<path fill="#e2afa7" style="fill: var(--color20, #e2afa7)" d="M12.618 18.579c0.064 0.514 0.079 1.107 0.485 1.486 0.665 0.626 1.522 1.049 2.422 1.21 1.379 0.229 2.76-0.13 4.057-0.572 0.043-0.516 0.091-1.030 0.109-1.548 0.037 0.931 0.004 1.862 0.033 2.791 0.019 0.729 0.043 1.458 0.107 2.184-2.3 1.065-4.918 1.243-7.381 0.712 0.188-0.906 0.219-1.833 0.237-2.754 0.043-1.169-0.012-2.339-0.068-3.508z"></path>
</symbol>
<symbol id="icon-4" viewBox="0 0 32 32">
<title>4</title>
<path fill="#5ea823" style="fill: var(--color21, #5ea823)" d="M26.37 0h0.533c0.103 0.209 0.312 0.632 0.415 0.841-0.375 0.379-0.747 0.755-1.122 1.134-0.324-0.375-0.664-0.735-1.027-1.075 0.502 0.19 0.889-0.032 1.158-0.668l0.043-0.233z"></path>
<path fill="#5ea823" style="fill: var(--color21, #5ea823)" d="M20.124 2.394c0.814 0.585 1.533 1.28 2.248 1.979 0.47-0.442 0.94-0.881 1.414-1.323 0.146 0.186 0.442 0.557 0.589 0.743-0.454 0.462-0.909 0.92-1.363 1.383 2.781 4.093 2.524 9.904-0.778 13.626-0.541-0.221-1.798-0.016-1.513-0.952 0.759-1.466 1.296-3.030 1.331-4.697-1.047 0.071-2.303 0.15-2.904 1.154-0.391 1.154 0.237 2.6-0.707 3.563-0.683 0.865-2.054 1.146-2.904 0.356-1.557-1.355-1.505-4.022-0.399-5.634 1.833-1.813 4.527-2.287 6.977-2.706-0.308-0.644-0.367-1.537-1.067-1.904-1.272-0.138-2.532 0.723-3.789 0.288-0.857-0.277-0.921-1.375-0.577-2.070 0.715-1.6 2.129-2.714 3.441-3.804z"></path>
<path fill="#5ea823" style="fill: var(--color21, #5ea823)" d="M4.986 5.235c2.189-0.818 4.662-0.755 6.783 0.237 0.474 0.194 0.94 0.656 0.644 1.201-0.344 1.651-2.449 1.782-3.101 3.212-0.786 1.568-1.335 3.358-0.838 5.1-0.873 0.265-1.75 0.521-2.623 0.782 0.178 0.474 0.356 0.944 0.525 1.418 0.648-0.182 1.292-0.363 1.94-0.537 0.122 0.838 0.13 1.707 0.407 2.517 0.47 0.897 1.094 1.707 1.478 2.651-0.877-0.352-1.703-0.802-2.524-1.26-0.458 0.462-0.917 0.928-1.371 1.391-0.257-0.198-0.51-0.403-0.755-0.608 0.446-0.47 0.893-0.936 1.343-1.399-1.244-1.229-2.394-2.603-3.026-4.255-1.426-3.386-0.936-7.427 1.118-10.449z"></path>
<path fill="#5ea823" style="fill: var(--color21, #5ea823)" d="M2.568 24.209c0.419-0.344 0.841-0.687 1.256-1.035 0.328 0.28 0.66 0.561 1.003 0.818l-0.375-0.233c-0.344 0.391-0.679 0.786-1.007 1.189-0.292-0.17-0.585-0.34-0.877-0.51v-0.229z"></path>
<path fill="#88d1fb" style="fill: var(--color22, #88d1fb)" d="M4.986 5.235c1.675-2.355 4.231-4.097 7.107-4.559 2.773-0.529 5.701 0.15 8.032 1.719-1.312 1.090-2.726 2.204-3.441 3.804-0.344 0.695-0.28 1.794 0.577 2.070 1.256 0.435 2.517-0.427 3.789-0.288 0.699 0.367 0.759 1.26 1.067 1.904-2.449 0.419-5.144 0.893-6.977 2.706-1.106 1.612-1.158 4.279 0.399 5.634 0.849 0.79 2.22 0.51 2.904-0.356 0.944-0.964 0.316-2.41 0.707-3.563 0.601-1.003 1.857-1.082 2.904-1.154-0.036 1.667-0.573 3.232-1.331 4.697-0.284 0.936 0.972 0.731 1.513 0.952-2.916 3.326-7.893 4.709-12.034 3.014-0.383-0.944-1.007-1.754-1.478-2.651-0.277-0.81-0.284-1.679-0.407-2.517-0.648 0.174-1.292 0.356-1.94 0.537-0.17-0.474-0.348-0.944-0.525-1.418 0.873-0.261 1.75-0.518 2.623-0.782-0.498-1.742 0.051-3.532 0.838-5.1 0.652-1.43 2.758-1.56 3.101-3.212 0.296-0.545-0.17-1.007-0.644-1.201-2.121-0.992-4.595-1.055-6.783-0.237z"></path>
<path fill="#4483a0" style="fill: var(--color23, #4483a0)" d="M23.174 2.315c0.557-0.565 1.114-1.13 1.667-1.699l0.328 0.284c0.363 0.34 0.703 0.699 1.027 1.075 1.833 2.445 2.935 5.385 3.236 8.423v2.422c-0.431 3.753-2.070 7.403-4.875 9.975-2.434 2.39-5.713 3.729-9.063 4.18-0.008 0.668-0.016 1.335-0.028 2.003 2.125 0.687 4.259 1.343 6.4 1.975 0.043 0.261 0.126 0.786 0.17 1.047h-16.17c0.103-0.249 0.312-0.743 0.415-0.988 2.019-0.865 4.203-1.284 6.262-2.054-0.016-0.664-0.028-1.323-0.043-1.983-2.75-0.375-5.42-1.339-7.672-2.983-0.344-0.257-0.676-0.537-1.003-0.818-0.19-0.17-0.569-0.514-0.759-0.683 0.585-0.593 1.169-1.181 1.758-1.77 0.182 0.154 0.545 0.462 0.727 0.616 0.245 0.205 0.498 0.411 0.755 0.608 4.784 3.725 12.156 3.287 16.506-0.917 4.768-4.279 5.523-12.18 1.564-17.237-0.146-0.186-0.442-0.557-0.589-0.743-0.154-0.182-0.458-0.553-0.612-0.735z"></path>
</symbol>
<symbol id="icon-5" viewBox="0 0 32 32">
<title>5</title>
<path fill="#596ebd" style="fill: var(--color24, #596ebd)" d="M15.621 4.129h0.341l0.251 0.007c-0.334 4.229-0.134 8.482-0.11 12.721-3.393 0.058-6.789-0.038-10.181 0.055 0.206-1.831 0.22-3.689 0.076-5.526-0.083-1.039-0.95-1.738-1.738-2.295 2.557-3.565 7.181-4.824 11.362-4.962z"></path>
<path fill="#465eb6" style="fill: var(--color25, #465eb6)" d="M16.213 4.136c4.236 0.089 8.936 1.349 11.523 4.955-0.809 0.54-1.648 1.266-1.734 2.305-0.138 1.831-0.124 3.678 0.058 5.502-3.317-0.083-6.637-0.014-9.958-0.041-0.024-4.239-0.224-8.492 0.11-12.721z"></path>
<path fill="#465eb6" style="fill: var(--color25, #465eb6)" d="M2.471 10.739c1.328-0.857 2.667 1.528 1.246 2.261-1.469 1.056-2.839-1.593-1.246-2.261z"></path>
<path fill="#465eb6" style="fill: var(--color25, #465eb6)" d="M28.325 10.791c0.812-0.678 2.12 0.279 1.906 1.263-0.028 0.912-1.201 1.493-1.944 0.95-0.836-0.454-0.809-1.789 0.038-2.212z"></path>
<path fill="#728deb" style="fill: var(--color26, #728deb)" d="M0 11.802c0.017-2.106 2.354-3.51 4.26-2.711 0.788 0.557 1.655 1.256 1.738 2.295 0.145 1.837 0.131 3.695-0.076 5.526-0.901 0.819-0.874 2.137-0.582 3.228 0.544 0.654 1.473 0.588 2.24 0.623 5.622-0.028 11.245-0.028 16.867-0.003 0.764-0.028 1.679 0.017 2.226-0.626 0.334-1.101 0.303-2.419-0.612-3.234-0.182-1.824-0.196-3.671-0.058-5.502 0.086-1.039 0.926-1.765 1.734-2.305 1.824-0.743 4.019 0.461 4.263 2.433v0.63c-0.138 1.59-1.531 2.649-3.021 2.887 0.041 3.413 0 6.827 0.024 10.243-0.888 0.003-1.775 0.010-2.663 0.003-0.843 0-1.686 0.003-2.529 0.003-5.206-0.003-10.415-0.003-15.621 0-0.843 0-1.686-0.003-2.529-0.003-0.888 0.007-1.775 0-2.663-0.003 0.024-3.417-0.017-6.83 0.024-10.247-1.469-0.237-2.849-1.263-3.021-2.828v-0.406zM2.471 10.739c-1.593 0.668-0.224 3.317 1.246 2.261 1.421-0.733 0.083-3.117-1.246-2.261zM28.325 10.791c-0.846 0.423-0.874 1.758-0.038 2.212 0.743 0.544 1.917-0.038 1.944-0.95 0.213-0.984-1.094-1.941-1.906-1.263z"></path>
<path fill="#4e69ca" style="fill: var(--color27, #4e69ca)" d="M5.34 20.139c-0.292-1.091-0.32-2.409 0.582-3.228 0.513 0.248 1.053 0.478 1.634 0.44 5.633-0.017 11.265-0.028 16.898-0.003 0.578 0.045 1.111-0.175 1.607-0.451 0.915 0.815 0.946 2.133 0.612 3.234-0.547 0.643-1.462 0.599-2.226 0.626-5.622-0.024-11.245-0.024-16.867 0.003-0.767-0.034-1.696 0.031-2.24-0.623z"></path>
<path fill="#3f53a0" opacity="0.82" style="fill: var(--color28, #3f53a0)" d="M5.922 16.912c3.393-0.093 6.789 0.003 10.181-0.055 3.32 0.028 6.641-0.041 9.958 0.041-0.495 0.275-1.029 0.495-1.607 0.451-5.633-0.024-11.265-0.014-16.898 0.003-0.582 0.038-1.122-0.193-1.634-0.44z"></path>
<path fill="#937560" style="fill: var(--color29, #937560)" d="M5.66 25.287c0.843 0 1.686 0.003 2.529 0.003-0.268 0.867-0.537 1.738-0.874 2.581h-1.672c0.003-0.86 0.007-1.72 0.017-2.584z"></path>
<path fill="#937560" style="fill: var(--color29, #937560)" d="M23.811 25.29c0.843 0 1.686-0.003 2.529-0.003 0.007 0.864 0.017 1.724 0.021 2.584h-1.676c-0.337-0.843-0.606-1.714-0.874-2.581z"></path>
</symbol>
<symbol id="icon-6" viewBox="0 0 32 32">
<title>6</title>
<path fill="#c8c8c8" style="fill: var(--color30, #c8c8c8)" d="M15.809 0h0.429c1.877 1.353 4.005 2.27 5.991 3.441 2.672 1.438 5.298 2.969 8 4.365-0.732 0.442-1.475 0.864-2.247 1.234-4.005 1.956-7.95 4.038-11.982 5.941-3.955-1.87-7.822-3.929-11.761-5.829-0.825-0.386-1.6-0.868-2.359-1.366 4.348-2.392 8.686-4.793 13.038-7.175 0.317-0.175 0.614-0.379 0.891-0.61z"></path>
<path fill="#e5e5e5" style="fill: var(--color31, #e5e5e5)" d="M1.485 8.026c0.099-0.059 0.297-0.181 0.396-0.241 0.759 0.498 1.534 0.98 2.359 1.366 3.939 1.9 7.805 3.959 11.761 5.829 0.010 5.123-0.017 10.243 0.013 15.363 0 0.528-0.040 1.056-0.125 1.58-4.807-2.642-9.617-5.272-14.403-7.947v-15.95z"></path>
<path fill="#8f8f8f" style="fill: var(--color32, #8f8f8f)" d="M30.228 7.805l0.053 0.254 0.234-0.224v16.145c-4.813 2.702-9.679 5.308-14.489 8.020h-0.261l0.122-0.076c0.086-0.525 0.125-1.052 0.125-1.58-0.030-5.12-0.003-10.24-0.013-15.363 4.031-1.903 7.977-3.985 11.982-5.941 0.772-0.37 1.514-0.792 2.247-1.234z"></path>
</symbol>
<symbol id="icon-7" viewBox="0 0 32 32">
<title>7</title>
<path fill="#8fcb39" style="fill: var(--color33, #8fcb39)" d="M6.445 0h19.033c1.317 0.26 2.296 1.228 2.616 2.526v26.858c-0.253 1.321-1.232 2.288-2.523 2.616h-19.073c-1.302-0.275-2.27-1.232-2.59-2.515v-26.891c0.268-1.313 1.243-2.277 2.538-2.594zM7.405 2.106c-1.068 0.175-1.552 1.332-1.485 2.311-0.019 4.238 0.022 8.48-0.015 12.718 0.052 0.763-0.030 1.667 0.573 2.244 0.558 0.64 1.47 0.588 2.24 0.633 4.852-0.026 9.704-0.026 14.556-0.004 0.767-0.045 1.682 0.022 2.236-0.618 0.618-0.58 0.532-1.496 0.584-2.266-0.022-4.104-0.019-8.208-0.004-12.313 0.007-0.926-0.074-2.065-1.020-2.541-0.915-0.387-1.953-0.246-2.925-0.279-4.912 0.115-9.842-0.134-14.742 0.115zM9.831 24.394c-0.763 0.13-1.994 0.153-1.905 1.247 0.175 0.908 1.217 0.793 1.905 0.964 0.182 0.703 0.119 1.957 1.165 1.89 1.012-0.026 0.919-1.18 1.072-1.89 0.688-0.19 1.753-0.030 1.931-0.956 0.115-1.12-1.165-1.12-1.935-1.25-0.164-0.718-0.037-1.872-1.075-1.894-1.046-0.060-0.971 1.187-1.157 1.89zM21.939 22.906c-1.109 0.852-2.11 1.853-2.98 2.947-0.889 1.113 0.015 2.932 1.399 3.040 1.254 0.186 2.058-0.994 2.895-1.719 0.755-0.848 1.994-1.7 1.686-3.003-0.22-1.295-1.924-2.058-2.999-1.265z"></path>
<path fill="#67912b" style="fill: var(--color34, #67912b)" d="M7.405 2.106c4.9-0.249 9.831 0 14.742-0.115 0.971 0.034 2.009-0.108 2.925 0.279 0.945 0.476 1.027 1.615 1.020 2.541-0.015 4.104-0.019 8.208 0.004 12.313-0.052 0.77 0.034 1.686-0.584 2.266-0.554 0.64-1.47 0.573-2.236 0.618-4.852-0.022-9.704-0.022-14.556 0.004-0.77-0.045-1.682 0.007-2.24-0.633-0.603-0.577-0.521-1.481-0.573-2.244 0.037-4.238-0.004-8.48 0.015-12.718-0.067-0.979 0.417-2.136 1.485-2.311z"></path>
<path fill="#5c6d44" style="fill: var(--color35, #5c6d44)" d="M9.831 24.394c0.186-0.703 0.112-1.95 1.157-1.89 1.038 0.022 0.912 1.176 1.075 1.894 0.77 0.13 2.050 0.13 1.935 1.25-0.179 0.927-1.243 0.767-1.931 0.956-0.153 0.711-0.060 1.864-1.072 1.89-1.046 0.067-0.982-1.187-1.165-1.89-0.688-0.171-1.73-0.056-1.905-0.964-0.089-1.094 1.142-1.116 1.905-1.247z"></path>
<path fill="#5c6d44" style="fill: var(--color35, #5c6d44)" d="M21.939 22.906c1.075-0.793 2.78-0.030 2.999 1.265 0.309 1.302-0.93 2.154-1.686 3.003-0.837 0.726-1.641 1.905-2.895 1.719-1.384-0.108-2.288-1.927-1.399-3.040 0.871-1.094 1.872-2.095 2.98-2.947zM22.66 23.587c-1.332 0.458-0.216 2.564 0.893 1.756 1.116-0.528 0.186-2.314-0.893-1.756zM20.015 26.147c-1.109 0.584-0.115 2.374 0.967 1.749 1.258-0.528 0.153-2.5-0.967-1.749z"></path>
<path fill="#fff" style="fill: var(--color3, #fff)" d="M22.66 23.587c1.079-0.558 2.009 1.228 0.893 1.756-1.109 0.807-2.225-1.299-0.893-1.756z"></path>
<path fill="#fff" style="fill: var(--color3, #fff)" d="M20.015 26.147c1.12-0.752 2.225 1.22 0.967 1.749-1.083 0.625-2.076-1.165-0.967-1.749z"></path>
</symbol>
<symbol id="icon-8" viewBox="0 0 32 32">
<title>8</title>
<path fill="#ece9ef" style="fill: var(--color36, #ece9ef)" d="M14.249 1.954h1.514c4.104 0.303 7.863 3.080 9.339 6.92 0.418-0.151 0.835-0.305 1.251-0.462-0.066 0.181-0.127 0.364-0.183 0.55l0.064 0.083c0.11 0.122 0.33 0.364 0.44 0.486-0.396 0.090-0.794 0.173-1.192 0.247 0.127 1.058 0.364 2.101 0.344 3.171-0.616 0.051-0.848 0.767-1.243 1.158 0.147 0.518 0.347 1.116 0.948 1.248-0.855 3.584-3.603 6.642-7.099 7.819-0.728 0.244-1.478 0.413-2.235 0.515-0.816 0.085-1.639 0.093-2.455 0.015-0.757-0.088-1.505-0.242-2.23-0.474-2.882-0.943-5.325-3.144-6.542-5.924-0.94-2.106-1.168-4.509-0.672-6.759 0.3-0.261 0.589-0.535 0.857-0.828-1.26-0.484-2.592-0.782-3.899-1.126-0.208-0.603-0.357-1.226-0.489-1.852 0.66 0.213 1.49 0.264 1.847 0.958 0.171-0.034 0.342-0.068 0.513-0.103 0.625 0.271 1.285 0.496 1.839 0.909 1.568-3.686 5.293-6.275 9.282-6.551zM11.237 4.136c-2.36 1.006-4.263 3-5.181 5.394 0.491 0.203 0.992 0.391 1.497 0.555 0.559 0.208 1.111 0.44 1.695 0.559l-0.024 0.056c0.603 0.21 1.204 0.427 1.808 0.628 0.977 0.386 1.974 0.706 2.953 1.082 0.024 0.117 0.071 0.354 0.095 0.471-1.080-0.362-2.184-0.635-3.273-0.96-0.581-0.193-1.221-0.254-1.739-0.603-0.044 0.322-0.088 0.647-0.222 0.95 0.005-0.33 0.015-0.657 0.024-0.982-0.53-0.132-1.053-0.278-1.583-0.403-0.513-0.151-1.024-0.344-1.566-0.352-0.542 2.343-0.281 4.893 0.928 6.991 1.385 2.501 3.952 4.307 6.784 4.727 3.158 0.523 6.512-0.718 8.608-3.134 1.053-1.275 2.008-2.812 2.098-4.502-0.44-0.005-0.877-0.007-1.314-0.010-0.584-0.037-1.168-0.059-1.754-0.051-0.667-0.015-1.336-0.039-2.003-0.056-1.187-0.176-2.391-0.139-3.588-0.198-0.034-0.1-0.107-0.296-0.144-0.396 0.606-0.037 1.212-0.059 1.82-0.088 0.222 0 0.445 0 0.664 0.002 0.486 0.012 0.97 0.015 1.456 0.005 0.65-0.010 1.3-0.017 1.947-0.032 0.591-0.002 1.18-0.010 1.769-0.015 0.464 0 0.931-0.007 1.392-0.061 0.093-1.133-0.054-2.262-0.247-3.376-0.489-0.017-0.945 0.171-1.409 0.291-1.121 0.376-2.328 0.523-3.408 1.009l-0.178 0.049c-0.379 0.117-0.762 0.22-1.129 0.366-0.616-0.239-1.004 0.281-1.551 0.425-0.027-0.122-0.081-0.362-0.107-0.481 0.853-0.283 1.698-0.594 2.538-0.911 0.623-0.208 1.241-0.43 1.859-0.662 0.542-0.186 1.080-0.379 1.617-0.581 0.435-0.151 0.872-0.296 1.312-0.435-0.489-1.788-1.844-3.273-3.325-4.351-2.614-1.844-6.187-2.198-9.119-0.921z"></path>
<path fill="#444" style="fill: var(--color37, #444)" d="M11.237 4.136c2.931-1.278 6.505-0.923 9.119 0.921 1.48 1.077 2.836 2.562 3.325 4.351-0.44 0.139-0.877 0.283-1.312 0.435-1.343-3.449-5.335-5.533-8.938-4.722-2.638 0.535-4.878 2.477-5.877 4.964-0.506-0.164-1.006-0.352-1.497-0.554 0.918-2.394 2.821-4.387 5.181-5.394z"></path>
<path fill="#444" style="fill: var(--color37, #444)" d="M5.721 10.531c0.542 0.007 1.053 0.2 1.566 0.352-0.398 1.712-0.352 3.554 0.357 5.181 0.921 2.264 2.958 4.023 5.318 4.641 1.817 0.471 3.811 0.303 5.494-0.542 2.213-1.043 3.874-3.163 4.37-5.56 0.437 0.002 0.875 0.005 1.314 0.010-0.090 1.69-1.046 3.227-2.098 4.502-2.096 2.416-5.45 3.657-8.608 3.134-2.831-0.42-5.398-2.225-6.784-4.727-1.209-2.098-1.471-4.649-0.928-6.991z"></path>
<path fill="#444" style="fill: var(--color37, #444)" d="M22.727 10.628c0.464-0.12 0.921-0.308 1.409-0.291 0.193 1.114 0.34 2.242 0.247 3.376-0.462 0.054-0.928 0.061-1.392 0.061 0.051-1.055-0.056-2.111-0.264-3.146z"></path>
<path fill="#527ca6" style="fill: var(--color38, #527ca6)" d="M13.43 5.12c3.603-0.811 7.594 1.273 8.938 4.722-0.537 0.203-1.075 0.396-1.617 0.581-0.904-1.918-2.753-3.395-4.886-3.637-2.748-0.42-5.621 1.265-6.617 3.857-0.584-0.12-1.136-0.352-1.695-0.559 0.999-2.487 3.239-4.429 5.877-4.964z"></path>
<path fill="#527ca6" style="fill: var(--color38, #527ca6)" d="M26.233 9.046c1.431-0.525 2.912-0.916 4.402-1.238 0.442 0.469 0.911 0.914 1.365 1.37v0.005c-0.987 0.193-1.981 0.359-2.97 0.54-0.283-0.161-0.567-0.325-0.85-0.489 0.020 0.129 0.059 0.388 0.078 0.518-0.393 0.044-0.787 0.090-1.18 0.142-0.1-0.090-0.303-0.271-0.405-0.362-0.11-0.122-0.33-0.364-0.44-0.486z"></path>
<path fill="#527ca6" style="fill: var(--color38, #527ca6)" d="M19.32 11.637c1.080-0.486 2.286-0.633 3.408-1.009 0.208 1.036 0.315 2.091 0.264 3.146-0.589 0.005-1.177 0.012-1.769 0.015 0.064-0.879 0-1.764-0.21-2.621-0.564 0.161-1.126 0.322-1.693 0.469z"></path>
<path fill="#527ca6" style="fill: var(--color38, #527ca6)" d="M7.287 10.882c0.53 0.125 1.053 0.271 1.583 0.403-0.010 0.325-0.020 0.652-0.024 0.982-0.337 2.289 0.811 4.678 2.743 5.926 2.308 1.571 5.665 1.287 7.656-0.677 0.005-0.005 0.017-0.017 0.022-0.024 0.887-0.774 1.436-1.839 1.805-2.941 0.586-0.007 1.17 0.015 1.754 0.051-0.496 2.396-2.157 4.517-4.37 5.56-1.683 0.845-3.676 1.014-5.494 0.542-2.36-0.618-4.397-2.377-5.318-4.641-0.708-1.627-0.755-3.469-0.357-5.181z"></path>
<path fill="#527ca6" style="fill: var(--color38, #527ca6)" d="M24.581 14.107c1.363 0.266 2.755 0.147 4.128 0.327 0.227 0.545 0.476 1.082 0.73 1.615-0.914-0.134-1.827-0.278-2.738-0.44-0.142-0.208-0.283-0.413-0.425-0.62-0.117 0.357-0.366 0.479-0.747 0.366-0.601-0.132-0.801-0.73-0.948-1.248z"></path>
<path fill="#758dd4" style="fill: var(--color39, #758dd4)" d="M28.912 7.052c0.384-0.945 1.375-1.177 2.274-1.368-0.169 0.711-0.352 1.419-0.552 2.123-1.49 0.322-2.97 0.713-4.402 1.238l-0.064-0.083c0.056-0.186 0.117-0.369 0.183-0.55 0.12-0.335 0.244-0.669 0.364-1.004 0.716-0.31 1.434-0.613 2.167-0.887 0.007 0.132 0.022 0.396 0.029 0.53z"></path>
<path fill="#758dd4" style="fill: var(--color39, #758dd4)" d="M1.256 8.594c1.307 0.344 2.638 0.642 3.899 1.126-0.269 0.293-0.557 0.567-0.857 0.828-0.393-0.085-0.884-0.037-1.011-0.535-0.2 0.12-0.398 0.237-0.598 0.357-0.897-0.149-1.791-0.313-2.687-0.469v-0.017c0.41-0.437 0.845-0.853 1.256-1.29z"></path>
<path fill="#758dd4" style="fill: var(--color39, #758dd4)" d="M27.693 13.144c0.584-0.564 1.407-0.366 2.133-0.335-0.327 0.572-0.696 1.119-1.116 1.624-1.373-0.181-2.765-0.061-4.128-0.327 0.396-0.391 0.628-1.107 1.243-1.158 0.611 0.095 1.412-0.325 1.869 0.195z"></path>
<path fill="#ff5c26" style="fill: var(--color40, #ff5c26)" d="M9.248 10.643c0.997-2.592 3.869-4.277 6.617-3.857 2.133 0.242 3.982 1.72 4.886 3.637-0.618 0.232-1.236 0.454-1.859 0.662-0.752-1.563-2.492-2.58-4.226-2.396-1.593 0.103-2.997 1.197-3.635 2.638-0.603-0.2-1.204-0.418-1.808-0.628l0.024-0.056z"></path>
<path fill="#ff5c26" style="fill: var(--color40, #ff5c26)" d="M19.32 11.637c0.567-0.147 1.129-0.308 1.693-0.469 0.21 0.857 0.274 1.742 0.21 2.621-0.647 0.015-1.297 0.022-1.947 0.032 0.056-0.716 0.027-1.434-0.134-2.135l0.178-0.049z"></path>
<path fill="#ff5c26" style="fill: var(--color40, #ff5c26)" d="M8.845 12.267c0.134-0.303 0.178-0.628 0.222-0.95 0.518 0.349 1.158 0.41 1.739 0.603-0.063 0.664-0.147 1.344 0.010 2.003 0.371 1.781 2.001 3.244 3.83 3.344 1.383 0.103 2.834-0.484 3.669-1.61 0.020 0.308 0.042 0.616 0.068 0.921 0.303 0.296 0.589 0.611 0.86 0.938-1.991 1.964-5.347 2.247-7.656 0.677-1.932-1.248-3.080-3.637-2.743-5.926z"></path>
<path fill="#ff5c26" style="fill: var(--color40, #ff5c26)" d="M18.482 15.477c0.193-0.327 0.391-0.655 0.586-0.982 0.667 0.017 1.336 0.042 2.003 0.056-0.369 1.102-0.918 2.167-1.805 2.941-0.237-0.682-0.491-1.356-0.784-2.015z"></path>
<path fill="#ffd24d" style="fill: var(--color41, #ffd24d)" d="M11.031 11.327c0.638-1.441 2.042-2.536 3.635-2.638 1.734-0.183 3.474 0.833 4.226 2.396-0.84 0.318-1.686 0.628-2.538 0.911 0.027 0.12 0.081 0.359 0.107 0.481 0.23 0.447 0.469 0.887 0.694 1.336-0.608 0.029-1.214 0.051-1.82 0.088 0.037 0.1 0.11 0.296 0.144 0.396 1.197 0.059 2.401 0.022 3.588 0.198-0.195 0.327-0.393 0.655-0.586 0.982 0.293 0.66 0.547 1.334 0.784 2.015-0.005 0.007-0.017 0.020-0.022 0.024-0.271-0.327-0.557-0.642-0.86-0.938-0.027-0.305-0.049-0.613-0.068-0.921-0.835 1.126-2.286 1.712-3.669 1.61-1.83-0.1-3.459-1.563-3.83-3.344-0.156-0.66-0.073-1.339-0.010-2.003 1.089 0.325 2.194 0.598 3.273 0.96-0.024-0.117-0.071-0.354-0.095-0.471-0.98-0.376-1.976-0.696-2.953-1.082z"></path>
<path fill="#ffd24d" style="fill: var(--color41, #ffd24d)" d="M18.013 12.053c0.366-0.147 0.75-0.249 1.129-0.366 0.161 0.701 0.191 1.419 0.134 2.135-0.486 0.010-0.97 0.007-1.456-0.005-0.232-0.449-0.464-0.899-0.694-1.351 0.293-0.144 0.586-0.283 0.887-0.413z"></path>
<path fill="#b75d01" style="fill: var(--color42, #b75d01)" d="M16.462 12.478c0.547-0.144 0.936-0.664 1.551-0.425-0.3 0.129-0.594 0.269-0.887 0.413 0.23 0.452 0.462 0.901 0.694 1.351-0.22-0.002-0.442-0.002-0.664-0.002-0.225-0.449-0.464-0.889-0.694-1.336z"></path>
<path fill="#b75d01" style="fill: var(--color42, #b75d01)" d="M11.51 23.231c0.726 0.232 1.473 0.386 2.23 0.474-0.269 0.559-0.554 1.107-0.867 1.642-0.926-0.010-1.81 0.291-2.699 0.498 0.393-0.896 0.877-1.749 1.336-2.614z"></path>
<path fill="#b75d01" style="fill: var(--color42, #b75d01)" d="M16.195 23.69c0.757-0.103 1.507-0.271 2.235-0.515 0.401 0.833 0.862 1.637 1.236 2.482-0.909-0.032-1.786-0.271-2.675-0.435-0.283-0.501-0.547-1.014-0.796-1.532z"></path>
<path fill="#d96d00" style="fill: var(--color43, #d96d00)" d="M10.174 25.844c0.889-0.208 1.773-0.508 2.699-0.498-0.85 1.549-1.617 3.144-2.457 4.7h-2.384c0.726-1.395 1.475-2.777 2.142-4.202z"></path>
<path fill="#d96d00" style="fill: var(--color43, #d96d00)" d="M16.992 25.221c0.889 0.164 1.766 0.403 2.675 0.435 0.677 1.49 1.451 2.931 2.191 4.39h-2.382c-0.848-1.598-1.62-3.237-2.484-4.824z"></path>
</symbol>
<symbol id="icon-9" viewBox="0 0 32 32">
<title>9</title>
<path fill="#00bfc0" style="fill: var(--color44, #00bfc0)" d="M15.079 2.19c-0.025-0.863 0.607-1.542 1.092-2.188 0.35 0.899 0.836 1.777 0.949 2.745-0.212 0.433-0.519 0.811-0.814 1.192 0.041-0.676 0.097-1.352 0.080-2.028-0.154 0.654-0.317 1.308-0.463 1.964-0.32-0.535-0.759-1.046-0.844-1.686z"></path>
<path fill="#00bfc0" style="fill: var(--color44, #00bfc0)" d="M10.215 2.199c1.967 0.731 4.074 1.583 5.346 3.343 0.982 1.63 0.734 3.663 0.375 5.443-0.737-0.538-1.484-1.126-1.923-1.945-0.508-0.952-0.77-2.008-1.117-3.021 0.132 1.159 0.149 2.378 0.646 3.457 0.436 0.783 1.203 1.294 1.862 1.876-1.073-0.083-2.196-0.248-3.068-0.927-0.803-0.527-1.17-1.481-1.291-2.397-0.24-1.948-0.56-3.884-0.83-5.829z"></path>
<path fill="#00bfc0" style="fill: var(--color44, #00bfc0)" d="M23.73 3.443c0.717-0.356 1.545-0.154 2.306-0.143-0.61 0.767-1.101 1.666-1.906 2.251-0.455 0.008-0.91 0.006-1.366-0.006 0.637-0.386 1.236-0.83 1.812-1.302-0.648 0.326-1.286 0.67-1.967 0.921 0.279-0.615 0.505-1.352 1.12-1.721z"></path>
<path fill="#00bfc0" style="fill: var(--color44, #00bfc0)" d="M18.657 9.956c1.95-2.279 5.012-3.090 7.823-3.73-0.75 2.753-1.468 5.517-2.21 8.27-0.742 2.543-3.757 3.423-6.121 2.993 1.004-0.626 2.124-1.186 2.806-2.193 0.759-1.341 1.032-2.883 1.286-4.383-0.596 1.354-1.128 2.764-2.019 3.959-0.72 0.919-1.721 1.559-2.753 2.074-0.215-2.356-0.185-4.963 1.189-6.99z"></path>
<path fill="#00bfc0" style="fill: var(--color44, #00bfc0)" d="M6.841 10.141c2.814 0.643 5.884 1.451 7.832 3.738 1.374 2.019 1.393 4.618 1.178 6.963-1.048-0.491-2.039-1.153-2.759-2.069-0.869-1.167-1.382-2.541-1.994-3.848 0.229 1.412 0.508 2.85 1.178 4.127 0.654 1.112 1.865 1.688 2.908 2.364-1.266 0.149-2.579 0.097-3.768-0.411-0.149-0.061-0.45-0.182-0.601-0.243-0.417-0.331-0.817-0.687-1.23-1.021-0.411-0.935-0.703-1.914-0.952-2.902-0.577-2.24-1.2-4.463-1.79-6.698z"></path>
<path fill="#00bfc0" style="fill: var(--color44, #00bfc0)" d="M3.070 12.408c0.742-0.022 1.534-0.204 2.24 0.105 0.665 0.339 0.886 1.114 1.183 1.738-0.673-0.229-1.31-0.541-1.945-0.855 0.582 0.439 1.17 0.866 1.782 1.258-0.527-0.058-1.183 0.204-1.622-0.204-0.634-0.604-1.112-1.349-1.639-2.041z"></path>
<path fill="#00bfc0" style="fill: var(--color44, #00bfc0)" d="M22.508 19.432c0.582-0.745 1.219-1.567 2.174-1.834 1.183-0.223 2.306 0.383 3.338 0.883-1.018 0.665-1.964 1.44-3.018 2.050-0.874 0.477-1.757-0.229-2.441-0.712 1.098 0.24 2.083-0.232 2.927-0.877-0.952 0.364-1.942 0.728-2.979 0.491z"></path>
<path fill="#48cebb" style="fill: var(--color45, #48cebb)" d="M18.212 3.432c1.023-1.305 2.726-1.724 4.257-2.11-0.458 1.586-0.778 3.214-1.324 4.77-0.527 1.206-1.994 1.354-3.142 1.393 0.607-0.516 1.423-0.897 1.708-1.697 0.251-0.634 0.381-1.305 0.546-1.964-0.566 1.31-1.241 2.67-2.61 3.308-0.097-1.247-0.113-2.596 0.566-3.699z"></path>
<path fill="#48cebb" style="fill: var(--color45, #48cebb)" d="M5.876 2.839c1.153 0.472 2.436 0.954 3.139 2.052 0.497 0.943 0.312 2.055 0.152 3.059-1.001-0.662-1.429-1.779-1.807-2.861 0.105 1.186 0.422 2.375 1.465 3.090-0.916-0.166-2.11-0.447-2.359-1.501-0.279-1.266-0.378-2.563-0.59-3.84z"></path>
<path fill="#48cebb" style="fill: var(--color45, #48cebb)" d="M26.77 13.374c0.714-0.356 1.539-0.154 2.301-0.141-0.612 0.764-1.101 1.669-1.909 2.248-0.452 0.014-0.908 0.017-1.36 0.014 0.634-0.408 1.239-0.861 1.818-1.343-0.648 0.334-1.283 0.706-1.975 0.938 0.279-0.615 0.51-1.346 1.126-1.716z"></path>
<path fill="#48cebb" style="fill: var(--color45, #48cebb)" d="M4.549 17.492c1.313-0.444 2.69-0.726 4.083-0.654 0.248 0.988 0.541 1.967 0.952 2.902-0.543-0.389-1.112-0.745-1.669-1.109 0.8 0.91 1.702 1.785 2.899 2.13 0.152 0.061 0.452 0.182 0.601 0.243-1.012 0.488-2.361 0.839-3.297 0.003-1.233-1.126-2.372-2.353-3.57-3.514z"></path>
<path fill="#b45a00" style="fill: var(--color46, #b45a00)" d="M17.225 23.308c0.792-1.526 1.506-3.087 2.287-4.618 0.052 3.090 0.138 6.201 0.748 9.241 0.257 1.429 0.714 2.833 1.492 4.069h-8.588c2.152-2.312 2.753-5.663 2.248-8.706 0.604 0.006 1.208 0.008 1.812 0.014z"></path>
</symbol>
<symbol id="icon-10" viewBox="0 0 32 32">
<title>10</title>
<path fill="#fdcd0d" style="fill: var(--color47, #fdcd0d)" d="M22.406 3.758c2.753-1.288 5.573-2.424 8.314-3.741-1.056 2.265-2.319 4.426-3.452 6.652-0.875 1.651-1.756 3.296-2.617 4.953-1.070 1.946-2.016 3.962-3.197 5.845-0.736-2.687-1.351-5.409-2.013-8.116-1.246-0.906-2.526-1.764-3.789-2.651-0.595-0.411-1.187-0.827-1.778-1.249l-0.156-0.11c0.663-1.24 1.255-2.515 1.931-3.747 0.088-0.065 0.266-0.195 0.354-0.258l0.082 0.195c0.629 1.439 1.798 2.651 3.056 3.56 1.133-0.317 2.166-0.915 3.265-1.334z"></path>
<path fill="#fd8d00" style="fill: var(--color48, #fd8d00)" d="M30.72 0.017c0.045 0.125 0.139 0.374 0.184 0.498-0.532 2.478-1.761 4.735-2.815 7.020-0.263-0.297-0.544-0.581-0.821-0.867 1.133-2.226 2.396-4.387 3.452-6.652z"></path>
<path fill="#fd8d00" style="fill: var(--color48, #fd8d00)" d="M21.454 17.467c1.181-1.883 2.127-3.899 3.197-5.845 0.382 0.079 0.765 0.153 1.147 0.218-1.051 1.824-2.098 3.67-3.435 5.304-0.272 0.238-0.566 0.759-0.997 0.464l0.088-0.142z"></path>
<path fill="#fdb906" style="fill: var(--color49, #fdb906)" d="M16.085 1.532c2.121 0.702 4.217 1.478 6.321 2.226-1.099 0.419-2.132 1.017-3.265 1.334-1.257-0.909-2.427-2.121-3.056-3.56z"></path>
<path fill="#c3c3c3" style="fill: var(--color50, #c3c3c3)" d="M8.886 10.144c1.637-1.591 3.31-3.143 4.987-4.692 0.592 0.422 1.184 0.838 1.778 1.249-1.223 1.136-2.455 2.263-3.65 3.432l-0.062-0.017c-0.986-0.377-2.042-0.059-3.053 0.028z"></path>
<path fill="#c3c3c3" style="fill: var(--color50, #c3c3c3)" d="M9.892 23.626c0.682 0.634 1.331 1.303 1.974 1.971-0.49 0.538-1.005 1.048-1.524 1.558-0.133-0.144-0.402-0.433-0.535-0.581 0.379-0.946 0.017-1.965 0.085-2.948z"></path>
<path fill="#eee" style="fill: var(--color51, #eee)" d="M24.651 11.622c0.861-1.657 1.742-3.302 2.617-4.953 0.278 0.286 0.558 0.569 0.821 0.867 1.11 1.691-0.453 4.050-2.291 4.304-0.382-0.065-0.765-0.139-1.147-0.218z"></path>
<path fill="#d6d6d6" style="fill: var(--color52, #d6d6d6)" d="M8.886 10.144c1.011-0.088 2.067-0.405 3.053-0.028-2.033 2.011-4.177 3.908-6.233 5.899-0.433-0.569-0.991-1.019-1.64-1.322 1.546-1.58 3.245-3.002 4.82-4.548z"></path>
<path fill="#d6d6d6" style="fill: var(--color52, #d6d6d6)" d="M2.183 15.907c1.356-0.719 3.098 0.688 2.679 2.164-0.258 1.373-2.118 1.974-3.132 1.017-1.053-0.833-0.784-2.673 0.453-3.18z"></path>
<path fill="#d6d6d6" style="fill: var(--color52, #d6d6d6)" d="M3.865 20.673c0.694-0.292 1.306-0.733 1.793-1.308 1.407 1.424 2.789 2.874 4.234 4.262-0.068 0.983 0.294 2.002-0.085 2.948-1.974-1.971-3.956-3.939-5.941-5.902z"></path>
<path fill="#8b8b8b" style="fill: var(--color53, #8b8b8b)" d="M11.866 25.597c0.122-0.133 0.368-0.399 0.49-0.532 1.756 1.413 3.429 2.931 5.196 4.336 0.436 0.368 0.858 0.753 1.277 1.144-3.894 0.026-7.788 0.102-11.681 0.020 0.326-0.399 0.654-0.799 1.008-1.175 0.736-0.736 1.453-1.492 2.186-2.234 0.518-0.51 1.034-1.019 1.524-1.558zM12.152 27.022c-0.898 0.235-0.422 1.679 0.439 1.359 0.932-0.221 0.436-1.733-0.439-1.359z"></path>
<path fill="#fff" style="fill: var(--color3, #fff)" d="M12.152 27.022c0.875-0.374 1.371 1.138 0.439 1.359-0.861 0.32-1.337-1.124-0.439-1.359z"></path>
<path fill="#545454" style="fill: var(--color54, #545454)" d="M2.016 32c0.818-0.855 1.597-1.744 2.399-2.617 1.246-0.011 2.492-0.014 3.741 0.006-0.354 0.377-0.682 0.776-1.008 1.175 3.894 0.082 7.788 0.006 11.681-0.020-0.419-0.391-0.841-0.776-1.277-1.144 1.954-0.057 3.911 0.003 5.865-0.040 0.711 0.844 1.515 1.634 2.002 2.639h-3.834c-0.034-0.464-0.048-0.932-0.062-1.396-0.648-0.026-1.294-0.040-1.94-0.048 0.023 0.481 0.028 0.963 0.054 1.444h-0.142c-1.119-0.685-2.554-0.187-3.806-0.266-1.682 0.193-3.438-0.28-5.063 0.266h-8.609z"></path>
<path fill="#00bfc0" style="fill: var(--color44, #00bfc0)" d="M19.582 30.556c0.646 0.009 1.291 0.023 1.94 0.048 0.014 0.464 0.028 0.932 0.062 1.396h-1.948c-0.026-0.481-0.031-0.963-0.054-1.444z"></path>
<path fill="#464646" opacity="0.84" style="fill: var(--color55, #464646)" d="M10.625 32c1.626-0.547 3.381-0.074 5.063-0.266 1.252 0.079 2.687-0.419 3.806 0.266h-8.869z"></path>
</symbol>
<symbol id="icon-11" viewBox="0 0 32 32">
<title>11</title>
<path fill="#65727f" style="fill: var(--color56, #65727f)" d="M4.804 0h1.291c2.627 0.041 5.075 1.905 5.73 4.461 0.443 1.358 0.145 2.794-0.354 4.093 4.004 3.993 8.004 7.996 12 12 1.176-0.413 2.441-0.763 3.684-0.428 2.605 0.484 4.647 2.839 4.841 5.481l0.004-0.874v2.452c-1.5-1.161-2.72-2.627-4.097-3.922-1.135 0.287-2.366 0.547-3.222 1.414-0.867 0.867-1.094 2.121-1.414 3.256 1.302 1.362 2.716 2.623 3.937 4.067h-1.455c-2.709-0.082-5.146-2.188-5.633-4.848-0.335-1.243 0.019-2.508 0.435-3.68-4.007-4.004-8.011-8.007-12.011-12.015-3.587 1.805-8.268-0.912-8.54-4.908v-1.734c1.466 1.202 2.72 2.627 4.089 3.937 1.060-0.279 2.207-0.491 3.059-1.243 1.016-0.848 1.273-2.221 1.611-3.431-1.313-1.366-2.753-2.608-3.955-4.078z"></path>
<path fill="#65727f" style="fill: var(--color56, #65727f)" d="M26.727 2.177c1.258-0.796 2.616-1.425 3.903-2.173 0.469 0.443 0.927 0.897 1.366 1.366-0.748 1.313-1.362 2.705-2.177 3.981-0.26 0.004-0.781 0.011-1.042 0.015-2.601 2.605-5.217 5.191-7.803 7.81-0.253 0.238-0.525 0.447-0.819 0.629-0.677-0.707-1.377-1.388-2.050-2.091 2.746-2.698 5.462-5.429 8.208-8.13 0.461-0.324 0.331-0.923 0.413-1.407z"></path>
<path fill="#1faae2" style="fill: var(--color1, #1faae2)" d="M0.964 27.003c3.26-3.211 6.478-6.463 9.73-9.678 1.317 1.351 2.649 2.686 4 4.004-3.219 3.256-6.489 6.463-9.708 9.715-0.38 0.387-0.811 0.722-1.302 0.956h-0.432c-1.321-0.737-2.326-1.942-3.252-3.111v-0.517c0.194-0.536 0.562-0.979 0.964-1.369z"></path>
</symbol>
</defs>
</svg>
